<svg xmlns="http://www.w3.org/2000/svg" width="21.938" height="21.933" viewBox="0 0 21.938 21.933">
  <path id="Icon_awesome-instagram" data-name="Icon awesome-instagram" d="M10.966,7.581A5.623,5.623,0,1,0,16.59,13.2,5.615,5.615,0,0,0,10.966,7.581Zm0,9.279A3.656,3.656,0,1,1,14.622,13.2a3.663,3.663,0,0,1-3.656,3.656Zm7.165-9.509A1.312,1.312,0,1,1,16.82,6.039,1.309,1.309,0,0,1,18.131,7.351Zm3.724,1.331a6.491,6.491,0,0,0-1.772-4.6,6.534,6.534,0,0,0-4.6-1.772c-1.811-.1-7.239-.1-9.049,0a6.524,6.524,0,0,0-4.6,1.767,6.512,6.512,0,0,0-1.772,4.6c-.1,1.811-.1,7.239,0,9.049a6.491,6.491,0,0,0,1.772,4.6,6.542,6.542,0,0,0,4.6,1.772c1.811.1,7.239.1,9.049,0a6.491,6.491,0,0,0,4.6-1.772,6.534,6.534,0,0,0,1.772-4.6c.1-1.811.1-7.234,0-9.044ZM19.516,19.67a3.7,3.7,0,0,1-2.085,2.085c-1.444.573-4.87.44-6.465.44s-5.026.127-6.465-.44A3.7,3.7,0,0,1,2.416,19.67c-.573-1.444-.44-4.87-.44-6.465s-.127-5.026.44-6.465A3.7,3.7,0,0,1,4.5,4.654c1.444-.573,4.87-.44,6.465-.44s5.026-.127,6.465.44a3.7,3.7,0,0,1,2.085,2.085c.573,1.444.44,4.87.44,6.465S20.089,18.231,19.516,19.67Z" transform="translate(0.005 -2.238)"/>
</svg>
