<svg xmlns="http://www.w3.org/2000/svg" width="20.247" height="20.262" viewBox="0 0 20.247 20.262">
  <path id="Icon_zocial-call" data-name="Icon zocial-call" d="M.035,3.247a1.218,1.218,0,0,1,.31-.661L2.824.106q.29-.248.434.083l2,3.76a.541.541,0,0,1-.1.641L4.25,5.5a1.028,1.028,0,0,0-.289.641A3.154,3.154,0,0,0,4.6,7.73a13.586,13.586,0,0,0,1.26,1.654l.641.661c.193.193.44.431.744.713a12.474,12.474,0,0,0,1.5,1.116,3.351,3.351,0,0,0,1.643.692.9.9,0,0,0,.661-.269l1.075-1.074a.454.454,0,0,1,.619-.083l3.616,2.128a.3.3,0,0,1,.165.217.264.264,0,0,1-.083.238L13.961,16.2a1.214,1.214,0,0,1-.661.309,5,5,0,0,1-2.284-.279,10.332,10.332,0,0,1-2.355-1.126q-1.085-.7-2.015-1.425T5.16,12.441l-.537-.517q-.206-.206-.548-.568T2.886,9.931A20.751,20.751,0,0,1,1.419,7.854a12.113,12.113,0,0,1-1.074-2.3A4.9,4.9,0,0,1,.035,3.247Z" transform="matrix(0.966, 0.259, -0.259, 0.966, 4.283, 0)"/>
</svg>
