<svg xmlns="http://www.w3.org/2000/svg" width="16.775" height="16.775" viewBox="0 0 16.775 16.775">
  <path id="Icon_awesome-whatsapp" data-name="Icon awesome-whatsapp" d="M14.263,4.688A8.315,8.315,0,0,0,1.18,14.719L0,19.025l4.407-1.157A8.288,8.288,0,0,0,8.38,18.879h0a8.393,8.393,0,0,0,8.391-8.313A8.346,8.346,0,0,0,14.263,4.688ZM8.384,17.479a6.9,6.9,0,0,1-3.52-.962l-.251-.15L2,17.052l.7-2.55-.165-.262a6.923,6.923,0,1,1,12.84-3.673,6.986,6.986,0,0,1-6.987,6.912ZM12.173,12.3c-.206-.1-1.228-.607-1.419-.674s-.33-.1-.468.1-.535.674-.659.816-.243.157-.449.052a5.654,5.654,0,0,1-2.827-2.471c-.213-.367.213-.341.61-1.135a.385.385,0,0,0-.019-.363c-.052-.1-.468-1.127-.64-1.543s-.341-.348-.468-.356-.258-.007-.4-.007a.769.769,0,0,0-.554.258,2.334,2.334,0,0,0-.726,1.734A4.069,4.069,0,0,0,5,10.87a9.282,9.282,0,0,0,3.55,3.138,4.065,4.065,0,0,0,2.494.52,2.127,2.127,0,0,0,1.4-.989,1.737,1.737,0,0,0,.12-.989C12.518,12.458,12.379,12.405,12.173,12.3Z" transform="translate(0 -2.25)"/>
</svg>
