<svg xmlns="http://www.w3.org/2000/svg" width="16.875" height="21.934" viewBox="0 0 16.875 21.934">
  <path id="Icon_awesome-pinterest-p" data-name="Icon awesome-pinterest-p" d="M8.965.457C4.456.457,0,3.463,0,8.328c0,3.094,1.74,4.852,2.795,4.852.435,0,.686-1.213.686-1.556,0-.409-1.041-1.279-1.041-2.979a5.939,5.939,0,0,1,6.17-6.038c2.993,0,5.207,1.7,5.207,4.825,0,2.333-.936,6.71-3.968,6.71a1.951,1.951,0,0,1-2.03-1.925c0-1.661,1.16-3.27,1.16-4.983,0-2.909-4.126-2.382-4.126,1.134A5.163,5.163,0,0,0,5.273,10.6c-.606,2.61-1.846,6.5-1.846,9.189,0,.831.119,1.648.2,2.479.149.167.075.149.3.066C6.144,19.3,6.064,18.7,7.066,14.735a3.564,3.564,0,0,0,3.045,1.582c4.667,0,6.763-4.548,6.763-8.648C16.875,3.3,13.1.457,8.965.457Z" transform="translate(0 -0.457)"/>
</svg>
