<svg id="Layer_2" data-name="Layer 2" xmlns="http://www.w3.org/2000/svg" width="48" height="48" viewBox="0 0 48 48">
  <g id="invisible_box" data-name="invisible box">
    <rect id="Rectangle_36" data-name="Rectangle 36" width="48" height="48" fill="none"/>
  </g>
  <g id="icons_Q2" data-name="icons Q2" transform="translate(6 10)">
    <path id="Path_286" data-name="Path 286" d="M6,12a2,2,0,0,0,2,2H40a2,2,0,0,0,2-2h0a2,2,0,0,0-2-2H8A2,2,0,0,0,6,12Z" transform="translate(-6 -10)" fill="#473f92"/>
    <path id="Path_287" data-name="Path 287" d="M6,24a2,2,0,0,0,2,2H32a2,2,0,0,0,2-2h0a2,2,0,0,0-2-2H8A2,2,0,0,0,6,24Z" transform="translate(2 -10)" fill="#473f92"/>
    <path id="Path_288" data-name="Path 288" d="M6,36a2,2,0,0,0,2,2H24a2,2,0,0,0,2-2h0a2,2,0,0,0-2-2H8A2,2,0,0,0,6,36Z" transform="translate(10 -10)" fill="#473f92"/>
  </g>
</svg>
